<?xml version="1.0" standalone="no"?><!DOCTYPE svg PUBLIC "-//W3C//DTD SVG 1.1//EN" "http://www.w3.org/Graphics/SVG/1.1/DTD/svg11.dtd"><svg class="icon" width="256px" height="226.57px" viewBox="0 0 1157 1024" version="1.1" xmlns="http://www.w3.org/2000/svg"><path d="M892.972522 589.957565a9.260522 9.260522 0 0 0-2.359652 4.051478c-39.624348 140.911304-169.138087 244.513391-322.470957 244.513392a333.289739 333.289739 0 0 1-206.981565-71.769044 9.438609 9.438609 0 0 0-12.555131 0.667826l-96.389565 96.389566a9.48313 9.48313 0 0 0 0.489739 13.935304 487.334957 487.334957 0 0 0 315.436522 115.311304c270.336 0 489.472-219.136 489.472-489.516521 0-18.075826-0.979478-35.884522-2.893913-53.426087a9.527652 9.527652 0 0 0-16.161391-5.743305l-145.586087 145.586087M243.311304 417.168696a9.260522 9.260522 0 0 0 2.359653-4.051479c39.579826-140.911304 169.093565-244.513391 322.470956-244.513391 78.046609 0 149.949217 26.846609 206.937044 71.769044a9.438609 9.438609 0 0 0 12.55513-0.667827l96.434087-96.389565a9.48313 9.48313 0 0 0-0.534261-13.935304 487.334957 487.334957 0 0 0-315.392-115.311304C297.761391 14.06887 78.625391 233.20487 78.625391 503.54087c0 18.031304 0.979478 35.884522 2.938435 53.426087 0.845913 7.969391 10.50713 11.353043 16.161391 5.743304l145.586087-145.586087" fill="#006DFA" /><path d="M492.633043 660.836174l188.282435 32.500869a9.48313 9.48313 0 0 0 8.325565-2.671304l438.272-438.227478a9.48313 9.48313 0 0 0 2.80487-6.722783V24.887652c0-8.45913-10.24-12.688696-16.294956-6.678261L487.513043 644.674783a9.527652 9.527652 0 0 0 5.12 16.116869M603.581217 386.760348l-176.439652-30.45287a8.904348 8.904348 0 0 0-7.835826 2.493218L8.592696 769.513739a8.904348 8.904348 0 0 0-2.671305 6.322087v206.937044a8.904348 8.904348 0 0 0 15.270957 6.277565L608.389565 401.897739a8.904348 8.904348 0 0 0-4.808348-15.137391" fill="#006DFA" /></svg>